HIERARCHY
ROOT Hips
{
	OFFSET 0.00000 0.00000 0.00000
	CHANNELS 6 Xposition Yposition Zposition Zrotation Yrotation Xrotation 
	JOINT LHipJoint
	{
		OFFSET 0 0 0
		CHANNELS 3 Zrotation Yrotation Xrotation
		JOINT LeftHip
		{
			OFFSET 1.75344 -1.53157 0.77399
			CHANNELS 3 Zrotation Yrotation Xrotation
			JOINT LeftKnee
			{
				OFFSET 2.25415 -6.19323 0.00000
				CHANNELS 3 Zrotation Yrotation Xrotation
				JOINT LeftAnkle
				{
					OFFSET 2.30342 -6.32861 0.00000
					CHANNELS 3 Zrotation Yrotation Xrotation
					JOINT LeftToe
					{
						OFFSET 0.10958 -0.30108 1.49206
						CHANNELS 3 Zrotation Yrotation Xrotation
						End Site
						{
							OFFSET 0.00000 -0.00000 0.77783
						}
					}
				}
			}
		}
	}
	JOINT RHipJoint
	{
		OFFSET 0 0 0
		CHANNELS 3 Zrotation Yrotation Xrotation
		JOINT RightHip
		{
			OFFSET -1.81912 -1.53156 0.77399
			CHANNELS 3 Zrotation Yrotation Xrotation
			JOINT RightKnee
			{
				OFFSET -2.22882 -6.12365 0.00000
				CHANNELS 3 Zrotation Yrotation Xrotation
				JOINT RightAnkle
				{
					OFFSET -2.21943 -6.09785 0.00000
					CHANNELS 3 Zrotation Yrotation Xrotation
					JOINT RightToe
					{
						OFFSET -0.18931 -0.52012 1.59379
						CHANNELS 3 Zrotation Yrotation Xrotation
						End Site
						{
							OFFSET -0.00000 -0.00000 0.84686
						}
					}
				}
			}
		}
	}
	JOINT lowerback
	{
		OFFSET 0 0 0
		CHANNELS 3 Zrotation Yrotation Xrotation
		JOINT Chest
		{
			OFFSET -0.00200 1.66634 -0.14248
			CHANNELS 3 Zrotation Yrotation Xrotation
			JOINT Chest2
			{
				OFFSET -0.00875 1.64542 0.09514
				CHANNELS 3 Zrotation Yrotation Xrotation
				JOINT lowerneck
				{
					OFFSET 0 0 0
					CHANNELS 3 Zrotation Yrotation Xrotation
					JOINT Neck
					{
						OFFSET 0.02257 1.59605 0.00839
						CHANNELS 3 Zrotation Yrotation Xrotation
						JOINT Head
						{
							OFFSET -0.10214 1.57530 -0.23335
							CHANNELS 3 Zrotation Yrotation Xrotation
							End Site
							{
								OFFSET -0.03588 1.60717 -0.08062
							}
						}
					}
				}
				JOINT LeftCollar
				{
					OFFSET 0 0 0
					CHANNELS 3 Zrotation Yrotation Xrotation
					JOINT LeftShoulder
					{
						OFFSET 2.54983 1.10186 0.40078
CHANNELS 3 Zrotation Xrotation Yrotation
						JOINT LeftElbow
						{
OFFSET 0 -4.288400 0.000000
CHANNELS 3 Zrotation Xrotation Yrotation
							JOINT LeftWrist
							{
OFFSET 0 -3.065520 -0.000000
CHANNELS 3 Zrotation Xrotation Yrotation
								JOINT lhand
								{
									OFFSET 0 0 0
CHANNELS 3 Zrotation Xrotation Yrotation
									JOINT LFingers
									{
OFFSET 0 -0.753040 0.000000
CHANNELS 3 Zrotation Xrotation Yrotation
										End Site
										{
OFFSET 0 -0.607120 0.000000
										}
									}
								}
								JOINT LThumb
								{
OFFSET 0 0.000000 0.000000
CHANNELS 3 Zrotation Xrotation Yrotation
									End Site
									{
OFFSET 0 -0.616390 0.616390
									}
								}
							}
						}
					}
				}
				JOINT RightCollar
				{
					OFFSET 0 0 0
					CHANNELS 3 Zrotation Yrotation Xrotation
					JOINT RightShoulder
					{
						OFFSET -2.60909 1.35448 0.21802
CHANNELS 3 Zrotation Xrotation Yrotation
						JOINT RightElbow
						{
OFFSET 0 -4.521720 -0.000000
CHANNELS 3 Zrotation Xrotation Yrotation
							JOINT RightWrist
							{
OFFSET 0 -2.891400 0.000000
CHANNELS 3 Zrotation Xrotation Yrotation
								JOINT rhand
								{
									OFFSET 0 0 0
CHANNELS 3 Zrotation Xrotation Yrotation
									JOINT RFingers
									{
OFFSET 0 -0.680540 0.000000
CHANNELS 3 Zrotation Xrotation Yrotation
										End Site
										{
OFFSET 0 -0.548670 0.000000
										}
									}
								}
								JOINT RThumb
								{
OFFSET 0 0.000000 0.000000
CHANNELS 3 Zrotation Xrotation Yrotation
									End Site
									{
OFFSET 0 -0.557050 0.557050
									}
								}
							}
						}
					}
				}
			}
		}
	}
}
MOTION
Frames: 8
Frame Time: 0.008333333333333333
8.531200 15.106900 42.628400 -178.704000 -6.373100 174.720000 0.000000 0.000000 0.000000 -25.730600 -23.766500 1.114700 2.592100 10.003400 28.987800 1.524800 4.599600 -25.373400 3.647400 -11.675800 -34.594500 0.000000 0.000000 0.000000 25.700400 13.671200 2.054500 -2.193900 -9.258900 26.608500 -0.052400 -22.611600 -32.206400 -0.000300 -0.119800 0.329000 3.464700 0.879100 12.847600 0.438800 1.772200 -2.333700 -1.854700 0.663700 -9.660900 2.855000 9.995400 -10.436800 8.282900 8.751300 33.147100 3.645400 4.378800 12.436400 0.000000 0.000000 0.000000 3.124500 10.733500 -27.883500 18.997500 -29.415500 5.029600 4.803400 14.706300 18.777100 0.000000 0.000000 0.000000 -7.125000 0.000000 0.000000 -15.152800 11.623700 -12.235600 0.000000 0.000000 0.000000 -5.644600 12.959400 48.384700 -19.325600 -29.821200 -5.191800 -15.251500 24.737400 56.137100 0.000000 0.000000 0.000000 7.125000 0.000000 -0.000000 79.416300 77.510100 -66.599900
8.555345 15.156391 42.614187 -179.333035 -3.986994 177.384154 0.000000 0.000000 0.000000 -25.054564 -23.710609 -1.384476 2.454569 9.754851 28.186465 1.524543 5.261237 -25.734860 3.153028 -10.938680 -32.073331 0.000000 0.000000 0.000000 24.556816 16.462310 -0.607392 -2.288248 -9.442273 27.188871 -0.039356 -22.029848 -31.332322 -0.008315 0.579039 -1.591146 2.207976 2.052221 10.063961 0.355657 3.064207 -3.034952 -1.396233 1.370105 -8.790182 3.544699 11.026104 -9.973727 8.265257 10.188668 33.065993 3.683114 5.126696 12.308417 0.000000 0.000000 0.000000 3.371974 10.890779 -29.166613 19.697473 -30.276149 5.378014 4.264576 12.606902 34.326784 0.000000 0.000000 0.000000 -7.125000 0.000000 0.000000 -15.531361 -3.330868 -17.033054 0.000000 0.000000 0.000000 -5.506834 12.981389 47.705488 -19.298674 -29.788074 -5.178356 -9.469992 21.194490 56.887216 0.000000 0.000000 0.000000 7.125000 0.000000 0.000000 82.544549 75.437928 -67.382709
8.550862 15.150690 42.606952 -179.306125 -4.560980 177.142888 0.000000 0.000000 0.000000 -25.131334 -23.651635 -1.202640 2.457609 9.760427 28.204483 1.522183 4.934438 -25.535363 3.325324 -11.203826 -32.970481 0.000000 0.000000 0.000000 24.662015 16.135226 -0.277641 -2.274882 -9.416608 27.107545 -0.058276 -22.456385 -32.033820 -0.009753 0.635363 -1.746037 2.414728 2.054451 10.512935 0.352384 3.111437 -3.239977 -1.549110 1.368650 -9.263902 3.880519 11.650561 -9.789003 8.215992 11.030425 33.443388 3.732114 5.529352 12.429168 0.000000 0.000000 0.000000 3.466290 10.977637 -29.537892 19.698145 -30.276984 5.378311 6.573992 10.757203 34.344626 0.000000 0.000000 0.000000 -7.125000 0.000000 0.000000 -14.288915 -3.605901 -15.640545 0.000000 0.000000 0.000000 -5.465680 13.482394 47.851020 -19.232460 -29.706440 -5.145503 -6.748857 18.526094 56.564553 0.000000 0.000000 0.000000 7.125000 0.000000 0.000000 81.637451 74.449658 -65.357732
8.551884 15.149416 42.610314 -179.269344 -5.007938 177.005105 0.000000 0.000000 0.000000 -25.087539 -23.449243 -1.212370 2.467383 9.778260 28.261642 1.534851 4.601958 -25.449332 3.433641 -11.365318 -33.522836 0.000000 0.000000 0.000000 24.748129 15.924454 -0.108329 -2.270827 -9.408737 27.082476 -0.028258 -22.669004 -32.130773 -0.006422 0.517492 -1.422003 2.307495 2.062806 10.329035 0.507291 3.111578 -3.088039 -1.312117 1.386280 -9.004853 3.849445 11.941396 -9.875706 7.924131 11.609882 33.497365 3.715004 5.765151 12.467509 0.000000 0.000000 0.000000 3.190261 10.624939 -29.716545 19.316674 -29.810315 5.187321 10.514083 10.352197 34.499496 0.000000 0.000000 0.000000 -7.125000 0.000000 0.000000 -12.162240 -4.283886 -13.330889 0.000000 0.000000 0.000000 -5.700803 13.422846 47.863930 -19.293353 -29.781628 -5.175792 -7.887434 19.403091 56.491492 0.000000 0.000000 0.000000 7.125000 0.000000 0.000000 81.195198 74.849134 -65.377297
8.545421 15.147011 42.613756 -179.078508 -5.136008 176.954374 0.000000 0.000000 0.000000 -24.987908 -23.806417 -1.262727 2.517631 9.869902 28.556525 1.604187 4.566953 -25.939268 3.447482 -11.386357 -33.594420 0.000000 0.000000 0.000000 24.870669 15.692679 -0.056972 -2.228819 -9.327302 26.824582 -0.012950 -22.528837 -31.840334 -0.015521 0.803336 -2.207864 2.702044 2.186660 10.390619 0.440016 3.328725 -3.111612 -1.645817 1.466046 -9.033173 4.184322 12.030874 -9.925899 7.596908 11.815153 33.395529 3.573166 5.872527 12.487366 0.000000 0.000000 0.000000 3.417365 10.845447 -29.643366 19.614824 -30.175496 5.336412 7.644633 12.030567 34.029117 0.000000 0.000000 0.000000 -7.125000 0.000000 0.000000 -13.688412 -3.432179 -14.904739 0.000000 0.000000 0.000000 -5.613904 13.424221 47.873704 -19.316566 -29.810174 -5.187288 -7.714088 19.291860 56.343464 0.000000 0.000000 0.000000 7.125000 0.000000 0.000000 80.670970 74.775017 -64.775220
8.533300 15.161843 42.628818 -179.142751 -4.097802 177.627548 0.000000 0.000000 0.000000 -24.712285 -23.400417 -2.084281 2.466689 9.777029 28.257573 1.487109 5.630650 -25.669181 3.837516 -11.940371 -35.522193 0.000000 0.000000 0.000000 24.274887 15.819537 -1.394931 -2.286881 -9.439730 27.180709 -0.126392 -21.378099 -31.030806 -0.024464 1.003706 -2.759114 2.681619 2.684580 10.137790 0.456536 3.986802 -3.428391 -1.727007 1.776888 -9.205388 4.197397 12.056720 -9.639229 7.167875 12.114863 32.822773 3.398223 5.991364 12.218248 0.000000 0.000000 0.000000 3.212505 10.989507 -28.830812 19.896581 -30.517544 5.478774 2.345428 13.482759 33.454732 0.000000 0.000000 0.000000 -7.125000 0.000000 0.000000 -16.534148 -2.302805 -17.940239 0.000000 0.000000 0.000000 -5.773544 13.399635 48.388465 -19.192388 -29.657003 -5.125704 -9.265398 20.113214 54.626255 0.000000 0.000000 0.000000 7.125000 0.000000 0.000000 73.936384 75.096024 -58.629592
8.532251 15.150674 42.614674 -179.579147 -5.980879 177.302558 0.000000 0.000000 0.000000 -25.473344 -23.755542 -1.347865 2.418454 9.688158 27.972630 1.478417 4.784761 -25.126842 3.954681 -12.099864 -36.086221 0.000000 0.000000 0.000000 23.983680 15.007903 -0.950258 -2.341928 -9.544709 27.514604 -0.227782 -21.901041 -32.373634 -0.002435 0.318064 -0.873902 2.308967 2.265790 10.240453 0.306895 3.367944 -3.327067 -1.573094 1.498084 -9.192284 4.106951 12.144673 -10.246499 7.599804 12.060159 33.371672 3.644186 5.999440 12.528508 0.000000 0.000000 0.000000 3.163701 10.985876 -28.470465 19.818731 -30.421079 5.440360 2.448488 13.262754 32.823919 0.000000 0.000000 0.000000 -7.125000 0.000000 0.000000 -16.488480 -1.713063 -17.685129 0.000000 0.000000 0.000000 -5.799130 13.405471 48.502850 -19.157922 -29.614518 -5.108660 -9.094175 20.439264 54.763802 0.000000 0.000000 0.000000 7.125000 0.000000 0.000000 74.499404 75.058750 -59.122531
8.532926 15.150098 42.604543 -179.696092 -6.836155 177.220464 0.000000 0.000000 0.000000 -25.627570 -23.684677 -1.367485 2.431433 9.712133 28.049443 1.477624 4.044913 -24.727343 3.983087 -12.137294 -36.220272 0.000000 0.000000 0.000000 23.923234 14.676713 -0.686915 -2.319025 -9.501006 27.375672 -0.188243 -22.473662 -32.873176 -0.000273 0.004490 -0.012296 2.084849 2.160739 10.080170 0.359427 3.195283 -3.201855 -1.350892 1.434942 -8.983405 4.079089 12.058346 -10.264981 7.352785 12.097059 33.040772 3.545685 6.009636 12.410884 0.000000 0.000000 0.000000 2.948631 10.747096 -27.925170 19.332047 -29.829018 5.195090 4.538609 13.336818 33.700620 0.000000 0.000000 0.000000 -7.125000 0.000000 0.000000 -15.358222 -2.751862 -16.677057 0.000000 0.000000 0.000000 -6.018492 13.405877 48.679719 -19.243857 -29.720630 -5.151221 -8.850987 20.066522 54.750273 0.000000 0.000000 0.000000 7.125000 0.000000 0.000000 74.517918 74.965546 -59.036055
